#Unknown ASF file
:ROOT_YZX
:FOOT_3DOF
:FULLY-SPECIFIED
:DEGREES
130
root -0.961242 17.3041 -37.2329 -0.420679 -27.1552 2.96009
lfemur -10.3052 4.05087 -24.5449
ltibia 40.4304
lfoot -26.0718 0 3.48438
ltoes -20.009
rfemur -25.6517 -35.6544 25.6631
rtibia 45.8601
rfoot 31.2925 0 -21.8401
rtoes -57.1414
lowerback 12.0642 1.63157 -3.89346
upperback 2.35998 1.78195 2.80564
thorax -4.49433 0.937322 4.87327
lowerneck -17.3259 1.24973 -11.7946
upperneck 19.0952 4.51498 1.66282
head 8.55413 1.42617 3.03368
lclavicle 1.47101e-014 -3.18055e-015
lhumerus -32.3856 3.93836 87.6934
lradius 40.268
lwrist 5.89758
lhand -11.9606 31.8174
lfingers 7.12502
lthumb 14.0949 61.3193
rclavicle 1.47101e-014 -3.18055e-015
rhumerus -34.25 -4.04837 -73.7824
rradius 41.2347
rwrist -4.4948
rhand -20.1557 11.9946
rfingers 7.12502
rthumb 6.18949 -17.895
131
root -0.895405 17.3104 -37.3147 -0.750866 -24.1046 3.06212
lfemur -10.5772 3.1637 -24.5121
ltibia 40.3497
lfoot -25.5062 0 1.2624
ltoes -18.9667
rfemur -25.6773 -34.2927 24.2222
rtibia 48.1283
rfoot 29.9349 0 -20.5208
rtoes -56.2298
lowerback 12.7464 1.89679 -4.08681
upperback 2.22413 2.08185 2.64258
thorax -5.04901 1.10424 4.74857
lowerneck -17.7013 0.689529 -12.2402
upperneck 19.9858 3.91071 1.87471
head 8.96251 1.08804 3.13767
lclavicle 1.37161e-014 8.74653e-015
lhumerus -33.1943 6.73634 85.9862
lradius 39.5907
lwrist 6.59929
lhand -13.7579 30.7157
lfingers 7.12502
lthumb 12.3625 60.3302
rclavicle 1.37161e-014 8.74653e-015
rhumerus -34.1347 -2.8536 -74.7102
rradius 41.947
rwrist -3.82425
rhand -22.3602 12.9295
rfingers 7.12502
rthumb 4.06095 -17.0116
132
root -0.888884 17.7568 -37.3232 -0.916361 -20.8934 2.91895
lfemur -6.28252 1.89763 -24.2193
ltibia 31.5405
lfoot -21.0218 0 -0.990761
ltoes -18.0553
rfemur -23.4394 -22.6436 16.8198
rtibia 50.2287
rfoot -18.3764 0 -27.3538
rtoes 2.46925
lowerback 13.0316 2.1421 -4.03929
upperback 2.21808 2.39533 2.44001
thorax -5.23784 1.26145 4.44375
lowerneck -20.0971 0.129999 -12.1971
upperneck 22.2296 3.41089 2.50783
head 10.2186 0.817772 3.39159
lclavicle 3.95581e-014 -1.03368e-014
lhumerus -33.0723 9.47455 83.7142
lradius 37.4719
lwrist 4.01098
lhand -12.8754 32.7087
lfingers 7.12502
lthumb 13.2133 62.27
rclavicle 3.95581e-014 -1.03368e-014
rhumerus -33.9993 -2.60689 -75.5152
rradius 42.7949
rwrist -3.36574
rhand -20.9715 14.3556
rfingers 7.12502
rthumb 5.40185 -15.5555
133
root -0.897959 17.7555 -37.3286 -1.36305 -18.6944 2.69039
lfemur -4.47101 1.28047 -23.8266
ltibia 28.5448
lfoot -19.8789 0 -2.50052
ltoes -18.583
rfemur -20.8748 -17.2676 15.3703
rtibia 49.0409
rfoot -18.9101 0 -18.5985
rtoes -18.5446
lowerback 12.3496 2.35775 -3.91636
upperback 2.65509 2.70776 2.17857
thorax -4.4164 1.38637 4.06387
lowerneck -20.5845 -0.436117 -12.5325
upperneck 22.5873 2.68124 3.03751
head 10.4852 0.503792 3.55569
lclavicle -9.94917e-014 1.27222e-014
lhumerus -33.1378 11.7435 81.4401
lradius 34.5719
lwrist 5.6463
lhand -15.5852 30.5546
lfingers 7.12502
lthumb 10.6003 60.2672
rclavicle -9.94917e-014 1.27222e-014
rhumerus -32.4422 -4.13858 -76.2051
rradius 41.3134
rwrist -2.11341
rhand -21.0979 14.6697
rfingers 7.12502
rthumb 5.27982 -15.2446
134
root -0.887187 17.7593 -37.3048 -1.59497 -15.7635 2.43112
lfemur -4.74734 -0.327606 -23.5997
ltibia 28.9989
lfoot -19.7076 0 -4.01028
ltoes -16.7974
rfemur -17.92 -11.8042 14.3574
rtibia 45.9019
rfoot -21.0189 0 -7.76033
rtoes -28.8758
lowerback 12.1129 2.3254 -3.48995
upperback 2.65956 2.71825 1.93638
thorax -4.25165 1.3836 3.57141
lowerneck -21.7046 -1.07097 -12.5534
upperneck 23.5831 1.91641 3.34711
head 11.1294 0.147161 3.60691
lclavicle 5.56597e-015 -7.95139e-015
lhumerus -33.5982 13.9504 78.7408
lradius 31.7178
lwrist 3.63658
lhand -15.147 31.2496
lfingers 7.12502
lthumb 11.0229 60.9402
rclavicle 5.56597e-015 -7.95139e-015
rhumerus -32.4126 -5.16993 -76.8204
rradius 41.3298
rwrist -2.35293
rhand -22.0061 13.3108
rfingers 7.12502
rthumb 4.40287 -16.6235
135
root -0.94588 17.7853 -37.2891 -1.85996 -12.0054 1.99444
lfemur -4.65601 -1.94285 -22.7578
ltibia 29.0571
lfoot -19.5481 0 -6.42307
ltoes -14.6409
rfemur -14.8938 -6.45843 14.6331
rtibia 42.5741
rfoot -22.9735 0 -1.93777
rtoes -25.8178
lowerback 12.7494 1.85578 -3.62274
upperback 1.95947 2.06681 1.9885
thorax -5.28755 1.09827 3.7883
lowerneck -21.3721 -1.49736 -13.1606
upperneck 24.1064 1.33641 3.8969
head 11.3088 -0.12261 3.83597
lclavicle -8.54774e-015 3.97569e-015
lhumerus -35.5985 15.5159 75.7898
lradius 29.3423
lwrist 1.6426
lhand -14.564 31.8058
lfingers 7.12502
lthumb 11.5853 61.4656
rclavicle -8.54774e-015 3.97569e-015
rhumerus -33.5849 -5.29605 -77.3631
rradius 41.1831
rwrist -2.59706
rhand -22.1501 13.532
rfingers 7.12502
rthumb 4.26384 -16.4051
136
root -1.02576 17.7644 -37.2306 -2.09224 -7.93588 1.78476
lfemur -4.55013 -3.36285 -22.1169
ltibia 29.2587
lfoot -20.0215 0 -8.41473
ltoes -16.5766
rfemur -11.6588 -1.94195 15.4278
rtibia 39.2805
rfoot -23.8393 0 -2.63552
rtoes -22.5404
lowerback 12.241 1.21759 -4.01646
upperback 1.63624 1.19586 2.11753
thorax -5.2747 0.686721 4.30538
lowerneck -20.3753 -1.83176 -14.33
upperneck 24.0144 0.880908 4.6873
head 11.1208 -0.332065 4.24228
lclavicle -2.09718e-014 -1.43125e-014
lhumerus -37.3977 16.6393 73.2509
lradius 27.3378
lwrist 0.387853
lhand -13.6435 32.2578
lfingers 7.12502
lthumb 12.4729 61.8656
rclavicle -2.09718e-014 -1.43125e-014
rhumerus -34.2548 -5.0332 -77.7586
rradius 40.5926
rwrist -3.04397
rhand -22.0775 11.6518
rfingers 7.12502
rthumb 4.33395 -18.2839
137
root -1.08998 17.7541 -37.1958 -2.11674 -6.15447 2.18237
lfemur -4.5737 -3.85382 -22.303
ltibia 29.2361
lfoot -20.1215 0 -9.7084
ltoes -15.4935
rfemur -9.87104 1.60204 15.6603
rtibia 37.2473
rfoot -22.8667 0 -6.16037
rtoes -20.7589
lowerback 12.2068 1.47601 -4.53578
upperback 1.38718 1.44011 1.58407
thorax -5.54353 0.824411 3.99218
lowerneck -19.9596 -2.25973 -14.8438
upperneck 23.5696 0.139818 5.55204
head 10.9485 -0.58702 4.52492
lclavicle 1.10822e-014 7.15625e-015
lhumerus -38.3384 16.9207 70.6995
lradius 25.4863
lwrist -1.42017
lhand -13.3185 32.1128
lfingers 7.12502
lthumb 12.7862 61.7012
rclavicle 1.10822e-014 7.15625e-015
rhumerus -34.8781 -5.47803 -78.705
rradius 40.0778
rwrist -2.77201
rhand -20.4902 12.8291
rfingers 7.12502
rthumb 5.86656 -17.0697
138
root -1.11866 17.7676 -37.1042 -2.55147 -5.45025 1.22147
lfemur -3.8337 -4.58113 -21.3369
ltibia 29.2275
lfoot -20.5152 0 -9.56112
ltoes -17.1166
rfemur -8.76299 2.18272 17.2634
rtibia 36.5444
rfoot -21.7293 0 -7.7033
rtoes -10.517
lowerback 11.3739 1.98644 -3.32626
upperback 2.12702 2.30245 1.49526
thorax -4.34052 1.1896 3.09307
lowerneck -20.2994 -3.10819 -14.4243
upperneck 22.8755 -0.936553 4.83331
head 10.8831 -1.09736 4.00869
lclavicle -7.50412e-015 -6.36111e-015
lhumerus -37.4148 19.2223 68.4561
lradius 22.7539
lwrist -4.90921
lhand -13.8109 31.3055
lfingers 7.12502
lthumb 12.3115 60.923
rclavicle -7.50412e-015 -6.36111e-015
rhumerus -34.4615 -5.83219 -79.5549
rradius 39.2961
rwrist -1.66872
rhand -19.663 3.618
rfingers 7.12502
rthumb 6.66513 -26.2571
139
root -1.17588 17.7923 -37.0851 -2.18406 -2.54709 0.470526
lfemur -4.63787 -5.52851 -20.1126
ltibia 29.2825
lfoot -20.2279 0 -11.4227
ltoes -16.9883
rfemur -8.63645 0.145155 18.4984
rtibia 36.2408
rfoot -21.7361 0 -9.05506
rtoes -7.87337
lowerback 11.5214 1.43167 -2.74459
upperback 1.33137 1.64548 1.68745
thorax -5.19459 0.883374 3.05823
lowerneck -18.3059 -3.10559 -14.9925
upperneck 22.127 -1.13889 4.99443
head 10.2634 -1.20248 4.10647
lclavicle 3.8266e-015 -3.97569e-015
lhumerus -39.7684 22.0912 65.4895
lradius 21.471
lwrist -7.84978
lhand -14.6993 31.2051
lfingers 7.12502
lthumb 11.4548 60.8721
rclavicle 3.8266e-015 -3.97569e-015
rhumerus -35.7271 -4.96323 -79.9693
rradius 38.4599
rwrist -0.165458
rhand -20.7933 11.7793
rfingers 7.12502
rthumb 5.57396 -18.1274
140
root -1.23439 17.7979 -37.033 -2.10266 -1.72506 0.409825
lfemur -4.61364 -5.63039 -19.7682
ltibia 29.2856
lfoot -20.3997 0 -12.1266
ltoes -16.1478
rfemur -8.42124 -1.31999 18.6061
rtibia 36.0148
rfoot -21.4072 0 -9.3605
rtoes -10.1332
lowerback 12.1872 1.86804 -2.93496
upperback 0.987106 2.1774 1.57267
thorax -5.97191 1.16412 2.93907
lowerneck -19.2501 -3.64093 -15.032
upperneck 22.7499 -1.77151 5.23442
head 10.7434 -1.48364 4.12704
lclavicle 2.65874e-015 4.37326e-015
lhumerus -41.1156 22.2285 64.8805
lradius 21.9983
lwrist -7.23048
lhand -15.0769 32.8988
lfingers 7.12502
lthumb 11.0906 62.5857
rclavicle 2.65874e-015 4.37326e-015
rhumerus -36.474 -4.70309 -80.4062
rradius 37.8017
rwrist -0.40805
rhand -20.2758 11.8587
rfingers 7.12502
rthumb 6.07358 -18.0343
